{"title":"Grandma's Boy (2006) MP4 SeedBox","uid":9712030,"size":4298151408,"categoryP":"video","categoryS":"hd___movies","magnet":"?xt=urn:btih:c835bec87c3ad2711f849e20906b8f3f256a97e5&amp;dn=Grandma%27s+Boy+%282006%29+MP4+SeedBox&amp;tr=udp%3A%2F%2Ftracker.openbittorrent.com%3A80&amp;tr=udp%3A%2F%2Fopen.demonii.com%3A1337&amp;tr=udp%3A%2F%2Ftracker.coppersurfer.tk%3A6969&amp;tr=udp%3A%2F%2Fexodus.desync.com%3A6969","seeders":1,"leechers":0,"uploader":"PapaFatHead","files":1,"time":1394121728,"description":"General\nComplete name                  : Grandma's Boy (2006).mp4\nFormat                         : MPEG-4\nFormat profile                 : Base Media\nCodec ID                       : isom\nFile size                      : 4.00 GiB\nDuration                       : 1h 30mn\nOverall bit rate               : 6 327 Kbps\n\n\n\nVideo\nID                             : 2\nFormat                         : AVC\nFormat/Info                    : Advanced Video Codec\nFormat profile                 : &lt;a class=&quot;__cf_email__&quot; href=&quot;/cdn-cgi/l/email-protection&quot; data-cfemail=&quot;8bc9eaf8eee7e2e5eecbc7b8a5bb&quot;&gt;[email&amp;#160;protected]&lt;/a&gt;&lt;script cf-hash='f9e31' type=&quot;text/javascript&quot;&gt;\n/* &lt;![CDATA[ */!function(){try{var t=&quot;currentScript&quot;in document?document.currentScript:function(){for(var t=document.getElementsByTagName(&quot;script&quot;),e=t.length;e--;)if(t[e].getAttribute(&quot;cf-hash&quot;))return t[e]}();if(t&amp;&amp;t.previousSibling){var e,r,n,i,c=t.previousSibling,a=c.getAttribute(&quot;data-cfemail&quot;);if(a){for(e=&quot;&quot;,r=parseInt(a.substr(0,2),16),n=2;a.length-n;n+=2)i=parseInt(a.substr(n,2),16)^r,e+=String.fromCharCode(i);e=document.createTextNode(e),c.parentNode.replaceChild(e,c)}}}catch(u){}}();/* ]]&gt; */&lt;/script&gt;\nFormat settings, CABAC         : No\nFormat settings, ReFrames      : 1 frame\nCodec ID                       : avc1\nCodec ID/Info                  : Advanced Video Coding\nDuration                       : 1h 30mn\nBit rate                       : 5 992 Kbps\nWidth                          : 1 920 pixels\nHeight                         : 1 080 pixels\nDisplay aspect ratio           : 16:9\nFrame rate mode                : Constant\nFrame rate                     : 24.000 fps\nColor space                    : YUV\nChroma subsampling             : 4:2:0\nBit depth                      : 8 bits\nScan type                      : Progressive\nBits/(Pixel*Frame)             : 0.120\nStream size                    : 3.79 GiB (95%)\nLanguage                       : English\n\nAudio\nID                             : 1\nFormat                         : AAC\nFormat/Info                    : Advanced Audio Codec\nFormat profile                 : LC\nCodec ID                       : 40\nDuration                       : 1h 30mn\nBit rate mode                  : Constant\nBit rate                       : 327 Kbps\nChannel(s)                     : 6 channels\nChannel positions              : Front: L C R, Side: L R, LFE\nSampling rate                  : 48.0 KHz\nCompression mode               : Lossy\nStream size                    : 212 MiB (5%)\nLanguage                       : English\n","torrent":{"xt":"urn:btih:c835bec87c3ad2711f849e20906b8f3f256a97e5","amp;dn":"Grandma%27s+Boy+%282006%29+MP4+SeedBox","amp;tr":["udp%3A%2F%2Ftracker.openbittorrent.com%3A80","udp%3A%2F%2Fopen.demonii.com%3A1337","udp%3A%2F%2Ftracker.coppersurfer.tk%3A6969","udp%3A%2F%2Fexodus.desync.com%3A6969"],"infoHash":"c835bec87c3ad2711f849e20906b8f3f256a97e5","infoHashBuffer":{"type":"Buffer","data":[200,53,190,200,124,58,210,113,31,132,158,32,144,107,143,63,37,106,151,229]},"announce":[],"urlList":[]}}